<?xml version="1.0" encoding="UTF-8"?>
<!DOCTYPE svg PUBLIC "-//W3C//DTD SVG 1.1//EN" "http://www.w3.org/Graphics/SVG/1.1/DTD/svg11.dtd">
<svg xmlns="http://www.w3.org/2000/svg" version="1.1" width="68px" height="69px" style="shape-rendering:geometricPrecision; text-rendering:geometricPrecision; image-rendering:optimizeQuality; fill-rule:evenodd; clip-rule:evenodd" xmlns:xlink="http://www.w3.org/1999/xlink">
<g><path style="opacity:0.973" fill="#8b58c2" d="M 0.5,-0.5 C 8.16667,-0.5 15.8333,-0.5 23.5,-0.5C 29.1047,4.60286 34.6047,9.93619 40,15.5C 40.6667,16.8333 40.6667,18.1667 40,19.5C 27.0151,31.318 14.5151,43.6514 2.5,56.5C 1.67504,57.3857 0.675044,57.719 -0.5,57.5C -0.5,38.5 -0.5,19.5 -0.5,0.5C 0.166667,0.5 0.5,0.166667 0.5,-0.5 Z"/></g>
<g><path style="opacity:0.989" fill="#fbb861" d="M 43.5,-0.5 C 50.8333,-0.5 58.1667,-0.5 65.5,-0.5C 65.8333,0.5 66.5,1.16667 67.5,1.5C 67.5,8.83333 67.5,16.1667 67.5,23.5C 66.5768,24.3029 65.5768,24.4696 64.5,24C 57.3333,16.8333 50.1667,9.66667 43,2.5C 42.5304,1.42317 42.6971,0.423175 43.5,-0.5 Z"/></g>
<g><path style="opacity:0.991" fill="#fb6d69" d="M 67.5,42.5 C 67.5,50.5 67.5,58.5 67.5,66.5C 65.3736,67.0482 63.3736,67.7148 61.5,68.5C 58.1667,68.5 54.8333,68.5 51.5,68.5C 49.1667,67.1667 46.8333,67.1667 44.5,68.5C 33.1667,68.5 21.8333,68.5 10.5,68.5C 8.08599,67.2233 7.91933,65.5566 10,63.5C 22.5,51 35,38.5 47.5,26C 49.2889,25.4795 50.9556,25.8129 52.5,27C 57.7306,32.062 62.7306,37.2286 67.5,42.5 Z"/></g>
</svg>
